PathFileType	4	(X/Y/Z)	..\data\2014004\dynamic\2014004_C4_02.trc
DataRate	CameraRate	NumFrames	NumMarkers	Units	OrigDataRate	OrigDataStartFrame	OrigNumFrames
100.000000	100.000000	4	52	mm	100.000000	107	172
Frame#	Time	L_IAS			L_IPS			R_IPS			R_IAS			L_FTC			L_FLE			L_FME			L_FAX			L_TTC			L_FAL			L_TAM			L_FCC			L_FM1			L_FM2			L_FM5			R_FTC			R_FLE			R_FME			R_FAX			R_TTC			R_FAL			R_TAM			R_FCC			R_FM1			R_FM2			R_FM5			CV7			TV10			SXS			SJN			L_SIA			L_SRS			L_SAA			L_SAE			L_HLE			L_HME			L_UOA			L_RSP			L_UHE			L_HM2			L_HM5			R_SIA			R_SRS			R_SAA			R_SAE			R_HLE			R_HME			R_UOA			R_RSP			R_UHE			R_HM2			R_HM5			
		X1	Y1	Z1	X2	Y2	Z2	X3	Y3	Z3	X4	Y4	Z4	X5	Y5	Z5	X6	Y6	Z6	X7	Y7	Z7	X8	Y8	Z8	X9	Y9	Z9	X10	Y10	Z10	X11	Y11	Z11	X12	Y12	Z12	X13	Y13	Z13	X14	Y14	Z14	X15	Y15	Z15	X16	Y16	Z16	X17	Y17	Z17	X18	Y18	Z18	X19	Y19	Z19	X20	Y20	Z20	X21	Y21	Z21	X22	Y22	Z22	X23	Y23	Z23	X24	Y24	Z24	X25	Y25	Z25	X26	Y26	Z26	X27	Y27	Z27	X28	Y28	Z28	X29	Y29	Z29	X30	Y30	Z30	X31	Y31	Z31	X32	Y32	Z32	X33	Y33	Z33	X34	Y34	Z34	X35	Y35	Z35	X36	Y36	Z36	X37	Y37	Z37	X38	Y38	Z38	X39	Y39	Z39	X40	Y40	Z40	X41	Y41	Z41	X42	Y42	Z42	X43	Y43	Z43	X44	Y44	Z44	X45	Y45	Z45	X46	Y46	Z46	X47	Y47	Z47	X48	Y48	Z48	X49	Y49	Z49	X50	Y50	Z50	X51	Y51	Z51	X52	Y52	Z52	

108	1.07	151.7418212890625	939.724548339844	165.2182159423829	-47.33351898193363	968.5520629882815	230.4521179199219	-48.31396102905279	970.9871826171877	321.5809020996094	148.7011566162109	936.9296875000002	397.0904541015626	72.42903137207031	881.711608886719	90.40973663330081	208.6504821777344	482.1637573242189	127.0317153930665	224.3507690429688	487.4110412597657	253.701629638672	212.2476196289063	420.997039794922	120.2043228149415	286.2322082519532	425.3222961425782	183.6399993896485	323.0957946777344	67.86220550537111	149.8660736083985	341.626220703125	101.6761703491211	241.0609130859376	289.6176452636719	22.31833267211914	209.9673004150391	483.2409667968751	89.10250091552736	231.6995849609376	474.0587158203126	90.55410003662111	174.1350250244141	455.1381835937501	60.09153366088869	132.9663543701173	73.70640563964839	863.9971923828127	457.516082763672	-73.66696166992193	462.9853515625001	394.7521057128907	-34.02331161499028	465.3716735839845	270.0093383789063	-90.37477111816412	428.0427856445314	393.806610107422	-25.94095420837407	399.6871643066407	350.2375183105469	-209.9142150878907	82.48678588867189	336.0650939941407	-187.8405303955079	111.3012390136719	242.5724639892578	-266.7617187500001	60.53353500366212	273.2655029296875	-62.91133880615239	25.47112655639649	259.6406860351563	-69.83644104003912	38.92741394042969	316.8843078613282	-104.8355026245118	23.93084907531739	367.3976135253907	15.8499946594238	1455.211547851563	276.8619079589844	-65.58255004882817	1228.122802734375	275.1964416503907	178.7051086425781	1179.832763671875	260.4588012695313	134.2397155761719	1365.827270507813	270.3857727050782	-73.97930908203128	1264.951416015625	168.9701690673828	-40.61717605590823	1404.6064453125	201.1657867431641	-4.670724868774429	1413.941162109375	118.5054168701172	61.11400222778321	1416.636962890625	83.18353271484378	-35.3176498413086	1112.454345703125	9.620171546936033	-59.51174163818362	1112.523315429688	94.23299407958984	-78.82503509521486	1103.606323242188	43.56032180786133	31.02602195739746	847.088562011719	43.67669677734376	-36.13171386718751	863.8333129882815	-0.03766213729978051	37.50565719604492	760.6928100585939	38.60695266723634	-61.12903976440431	775.696960449219	6.519757270812983	-59.76955413818366	1244.04638671875	399.5114746093751	-31.13652610778814	1388.604858398438	362.2805175781251	26.55743789672847	1400.908813476563	442.0686645507814	89.28794097900386	1403.036499023438	456.2742614746095	24.9184894561767	1082.902465820313	548.8395385742189	2.915561676025335	1068.587768554688	458.5706481933595	-13.97733974456794	1052.6923828125	509.8667907714845	238.3942565917969	916.1118164062502	509.5044860839845	177.947265625	877.4887695312502	544.7596435546876	300.8696899414062	849.225524902344	518.0548095703126	207.1155853271484	799.7541503906252	526.2294921875001	
109	1.08	164.7393341064453	937.7032470703127	165.252426147461	-34.59387969970707	966.7832641601565	229.7554931640626	-35.89394378662114	969.4158325195315	320.7639770507813	160.9339294433593	935.262390136719	397.1604309082032	85.24385833740234	879.7163085937502	90.25971221923831	220.2537841796875	480.1339111328126	128.0080108642579	235.4725036621094	486.2234191894532	254.603973388672	225.0405883789063	419.0495910644532	121.3168716430665	299.0509033203126	425.0800170898439	184.9344482421876	344.5755615234376	68.15042877197267	151.9556121826172	362.3930053710938	102.879264831543	243.0114288330079	312.1720886230469	21.78903388977051	212.2377929687501	504.4439086914063	93.87373352050783	233.9848632812501	495.3012695312501	94.23827362060548	176.443328857422	477.2286682128907	63.06563949584962	135.5610656738282	85.09651184082027	862.8523559570315	457.4284667968751	-65.88250732421881	463.3351440429689	395.0796203613282	-25.79833030700688	465.1656188964845	270.2864074707032	-83.00510406494146	428.5403747558595	394.2239990234376	-19.04184341430669	399.2160644531251	350.5959167480469	-208.7202453613282	84.88450622558595	337.2121887207032	-186.4880371093751	113.5284423828125	243.6531219482422	-266.265594482422	63.97832107543947	274.5506286621094	-62.68243789672856	25.58789062500001	259.7716979980469	-69.29546356201178	38.95003128051759	317.2065429687501	-104.4822235107423	23.83395385742188	367.6905517578126	27.85899353027341	1453.441528320313	275.5467224121094	-53.30672454833989	1226.275024414063	274.4244384765626	191.1203308105469	1178.215209960938	259.8868408203126	146.4727478027344	1364.2158203125	269.2125854492188	-61.70662307739261	1262.504638671875	168.074935913086	-28.63906478881839	1402.586547851563	200.1383972167969	7.155054092407214	1411.682739257813	117.4558715820313	72.76670074462891	1414.255737304688	81.89076995849612	-24.71753883361817	1110.305053710938	9.671149253845213	-48.53763198852542	1110.510009765625	94.49946594238283	-68.45521545410158	1102.305419921875	43.61899948120117	37.99382400512695	843.9040527343752	42.97914123535158	-29.04468536376954	861.8041992187502	-0.4147992432117499	43.25459671020508	757.5177001953126	37.75422668457033	-55.40612792968751	774.0662841796877	6.004753112792963	-47.52539443969732	1242.460571289063	398.6986083984376	-19.12338447570805	1387.002807617188	361.1368103027344	38.56443786621089	1399.590942382813	440.8946533203126	101.3081588745117	1401.886962890625	455.0651855468751	37.35252380371088	1082.024291992188	548.7517700195314	15.41926670074458	1067.262084960938	458.5405883789064	-1.518096208572451	1051.461181640625	509.9778747558595	251.7540283203125	916.5273437500002	509.1363220214845	191.6819305419922	877.5227050781252	544.6929321289064	314.7276000976562	850.1339111328127	517.6890869140626	221.3926239013672	799.9409790039065	526.1434326171876	
110	1.09	177.9348602294922	935.8638916015627	165.2154541015626	-21.68410491943363	964.971130371094	228.9654846191407	-23.30735969543461	967.8171386718752	319.8108825683594	173.3138885498047	933.7147216796877	397.2035522460939	98.35739898681642	877.8162231445315	90.03316497802737	232.3804626464844	478.3099670410157	128.9615020751954	247.2391967773438	485.3133850097657	255.4129791259766	237.9900970458985	417.2214965820314	122.4083862304688	311.9732360839844	424.6064453125001	186.2070465087891	363.4530029296876	68.05240631103517	154.1516265869141	380.7389221191406	103.5439758300782	245.1005859375001	331.7868957519532	21.17765235900879	214.5603332519532	523.0430297851564	97.31262207031253	236.3403625488282	513.9762573242189	96.67362976074222	178.8374786376954	496.5569458007814	64.90513610839845	138.2583618164063	96.6726150512695	861.7885742187502	457.2590332031251	-57.42572784423835	463.6348876953126	395.4930114746095	-16.91483497619632	464.8871154785157	270.6448669433594	-74.99723052978521	428.9905395507814	394.7445373535157	-11.53882503509526	398.6784057617189	351.0207214355469	-207.3440551757813	87.54827880859376	338.5294494628907	-184.9832611083985	115.9969863891602	244.9221801757813	-265.6587829589845	67.81063079833986	276.0239868164062	-62.47507858276371	25.67203521728516	259.9070434570313	-68.72716522216803	38.93063735961915	317.5453491210938	-104.1683959960938	23.68465805053711	367.9944458007813	39.9628982543945	1451.723388671875	274.1504516601563	-40.90645980834965	1224.471801757813	273.5863952636719	203.6717071533203	1176.65673828125	259.2344970703126	158.8228912353516	1362.6669921875	267.9523925781251	-49.31713867187504	1260.10009765625	167.1151123046875	-16.56177902221683	1400.599853515625	199.0227508544922	19.06725883483886	1409.446411132813	116.3099975585938	84.52590179443359	1411.909790039063	80.50599670410159	-13.75316810607911	1108.080200195313	9.705982208251953	-37.18633651733401	1108.422241210938	94.76057434082033	-57.67682266235354	1100.901733398438	43.69451904296875	45.32787322998047	840.7092285156252	42.22367477416994	-21.58349800109864	859.7764892578127	-0.8294953703880339	49.39667510986329	754.3825683593751	36.80887985229494	-49.32332229614259	772.4839477539065	5.441447734832758	-35.15684127807623	1240.934814453125	397.7996215820314	-6.985172271728562	1385.450439453125	359.9070129394532	50.69092941284175	1398.337890625	439.6350708007814	113.449836730957	1400.796264648438	453.7632751464845	49.80687332153315	1081.21923828125	548.5603637695314	27.92396354675288	1066.039428710938	458.411834716797	10.92975902557367	1050.369018554688	509.9981384277345	264.8141479492188	916.5845336914065	508.7540283203127	205.0225372314453	877.338806152344	544.6109008789064	328.1410217285156	850.5776367187502	517.4100952148439	235.1317901611328	799.8507080078127	526.0968627929689	
111	1.1	191.3352661132812	934.262390136719	165.0932922363282	-8.594710350036651	963.1405029296877	228.0874633789063	-10.53198528289799	966.1951904296877	318.7319335937501	185.864028930664	932.3051757812502	397.2088317871095	111.7944717407227	876.058288574219	89.71854400634768	245.0648193359375	476.7236938476564	129.8865509033204	259.6813659667969	484.6734008789064	256.1241149902345	251.1305847167969	415.5332946777345	123.4639282226563	325.0319824218751	423.9005737304689	187.4525604248047	379.7550354003907	67.48303985595705	156.4075622558595	396.6913146972657	103.5422821044922	247.2901306152345	348.4161987304688	20.45083808898926	216.8593597412111	539.0696411132814	99.13371276855472	238.782684326172	530.1331176757814	97.635612487793	181.3294067382813	513.1434936523439	65.4058074951172	141.0346221923829	108.4730987548828	860.7973632812502	456.9985961914064	-48.2203330993653	463.8524780273439	396.0202026367189	-7.298898696899449	464.4828186035157	271.1287231445313	-66.2914657592774	429.3741760253907	395.3914184570314	-3.374109983444258	398.0385742187501	351.5544128417969	-205.7527770996095	90.51360321044923	340.0099182128907	-183.2472229003907	118.7252426147461	246.3818664550782	-264.8662719726564	72.10438537597658	277.6611633300781	-62.34035110473637	25.72448539733887	260.0464782714844	-68.18045043945318	38.8502311706543	317.8782653808594	-103.9423522949219	23.48340225219727	368.2809143066407	52.15982437133787	1450.080688476563	272.6677551269532	-28.37326622009281	1222.730712890625	272.6789245605469	216.36962890625	1175.187744140625	258.4902648925782	171.2886962890625	1361.202270507813	266.5983581542969	-36.81139755249026	1257.769287109375	166.1000671386719	-4.379730701446558	1398.667236328125	197.8097534179688	31.07370567321777	1407.255615234375	115.0585861206055	96.40317535400392	1409.624145507813	79.02100372314456	-2.429390907287599	1105.798217773438	9.718758583068849	-25.45700073242189	1106.286987304688	95.0086135864258	-46.475887298584	1099.395263671875	43.79675674438477	53.05940246582032	837.5344238281252	41.41796493530275	-13.71992683410645	857.770202636719	-1.278983950614931	55.94977569580079	751.3050537109376	35.7855796813965	-42.84453582763673	770.9726562500002	4.830152988433833	-22.65786170959478	1239.484985351563	396.8030700683595	5.279725074768024	1383.966430664063	358.5832214355469	62.93705368041988	1397.16943359375	438.2827453613282	125.7130889892578	1399.781982421875	452.362030029297	62.2760734558105	1080.506713867188	548.2570190429689	40.42303848266597	1064.939575195313	458.174530029297	23.35939979553217	1049.435668945313	509.9134521484376	277.5638427734375	916.2836914062502	508.3648681640627	217.9561920166016	876.944030761719	544.5215454101564	341.0997314453125	850.549987792969	517.2155761718751	248.3151092529297	799.4861450195315	526.1030273437501	
